HIERARCHY
ROOT hip
{
	OFFSET 0.000000 0.000000 0.000000 
	CHANNELS 6 Xposition Yposition Zposition Xrotation Zrotation Yrotation
	JOINT abdomen
	{
		OFFSET 0.000000 3.402643 0.000000 
		CHANNELS 3 Xrotation Zrotation Yrotation
		JOINT chest
		{
			OFFSET 0.000000 8.438565 -0.680529 
			CHANNELS 3 Xrotation Zrotation Yrotation
			JOINT neck
			{
				OFFSET 0.000000 10.207942 -0.272212 
				CHANNELS 3 Xrotation Zrotation Yrotation
				JOINT head
				{
					OFFSET 0.000000 3.130431 0.000000 
					CHANNELS 3 Xrotation Zrotation Yrotation
					End Site
					{
						OFFSET 0.000000 3.130435 0.000000 
					}
				}
			}
			JOINT lCollar
			{
				OFFSET 3.470700 6.669187 -0.816635 
				CHANNELS 3 Yrotation Zrotation Xrotation
				JOINT lShldr
				{
					OFFSET 3.198488 0.000000 0.000000 
					CHANNELS 3 Zrotation Yrotation Xrotation
					JOINT lForeArm
					{
						OFFSET 10.139888 0.000000 0.000000 
						CHANNELS 3 Yrotation Zrotation Xrotation
						JOINT lHand
						{
							OFFSET 8.370511 0.000000 0.000000 
							CHANNELS 3 Zrotation Yrotation Xrotation
							End Site
							{
								OFFSET 4.083176 0.000000 0.000000 
							}
						}
					}
				}
			}
			JOINT rCollar
			{
				OFFSET -3.470700 6.669187 -0.816635 
				CHANNELS 3 Yrotation Zrotation Xrotation
				JOINT rShldr
				{
					OFFSET -3.198488 0.000000 0.000000 
					CHANNELS 3 Zrotation Yrotation Xrotation
					JOINT rForeArm
					{
						OFFSET -10.139888 0.000000 0.000000 
						CHANNELS 3 Yrotation Zrotation Xrotation
						JOINT rHand
						{
							OFFSET -8.370511 0.000000 0.000000 
							CHANNELS 3 Zrotation Yrotation Xrotation
							End Site
							{
								OFFSET -4.083176 0.000000 0.000000 
							}
						}
					}
				}
			}
		}
	}
	JOINT lThigh
	{
		OFFSET 5.308129 -1.633274 1.361059 
		CHANNELS 3 Xrotation Zrotation Yrotation
		JOINT lShin
		{
			OFFSET -2.041588 -20.007561 0.000000 
			CHANNELS 3 Xrotation Zrotation Yrotation
			JOINT lFoot
			{
				OFFSET 0.000000 -19.190928 -1.224953 
				CHANNELS 3 Xrotation Yrotation Zrotation
				End Site
				{
					OFFSET 0.000000 -2.449906 4.627600 
				}
			}
		}
	}
	JOINT rThigh
	{
		OFFSET -5.308129 -1.633274 1.361059 
		CHANNELS 3 Xrotation Zrotation Yrotation
		JOINT rShin
		{
			OFFSET 2.041588 -20.007561 0.000000 
			CHANNELS 3 Xrotation Zrotation Yrotation
			JOINT rFoot
			{
				OFFSET 0.000000 -19.190928 -1.224953 
				CHANNELS 3 Xrotation Yrotation Zrotation
				End Site
				{
					OFFSET 0.000000 -2.449906 4.627600 
				}
			}
		}
	}
}
MOTION
Frames: 6
Frame Time: 0.011111
-0.287242 54.064892 13.309823 19.224684 -1.907652 -4.698825 70.393959 -11.302944 -12.450433 -17.904026 1.249859 -1.011348 -33.215160 3.509552 0.780803 20.718111 1.323902 3.881948 -1.896031 -0.900906 0.061420 23.192987 -87.146629 -74.697868 -72.587753 9.874177 17.125219 6.992188 16.005859 38.332775 5.164488 -1.441709 -0.481386 59.609470 44.155518 51.050987 89.955269 -1.024415 29.667671 -7.001954 -15.996095 127.968742 -34.848225 12.029337 0.061062 33.240440 -5.304101 -2.447393 -23.982428 3.108507 1.627652 -2.411818 -22.318928 -3.020798 3.583265 5.133824 -0.019990 -5.370932 0.794909 0.664329 
-0.294081 54.060226 13.305782 19.199036 -1.985409 -4.600039 70.383156 -11.243038 -12.536834 -17.933180 1.233908 -1.038736 -33.285797 3.573095 0.748061 20.649139 1.307024 3.846537 -1.896031 -0.900906 0.061420 22.819508 -87.152756 -74.229584 -72.491585 9.884035 17.077547 6.992188 16.005859 38.469490 5.164488 -1.441709 -0.481386 59.574188 44.093353 51.030708 89.949913 -1.033944 29.628475 -7.001954 -15.996095 127.958992 -34.868233 12.068570 -0.011765 33.259579 -5.309512 -2.459530 -23.998886 3.052411 1.617069 -2.411814 -22.318930 -3.020798 3.583260 5.133827 -0.019990 -5.370893 0.795094 0.664414 
-0.300921 54.056190 13.297390 19.192217 -2.030664 -4.501819 70.352928 -11.173569 -12.634563 -17.942921 1.246995 -1.071562 -33.461559 3.586428 0.755247 20.590738 1.310707 3.875048 -1.896031 -0.900906 0.061420 25.403719 -87.108116 -77.195023 -72.310936 9.904057 16.998978 6.992188 16.005859 38.156990 5.164488 -1.441709 -0.481386 59.523930 44.118431 51.159897 89.940361 -1.043219 29.560020 -7.001954 -15.996095 127.890617 -34.914356 12.057854 -0.101673 33.270233 -5.304173 -2.458360 -24.018801 3.050878 1.616833 -2.411818 -22.318928 -3.020798 3.583264 5.133826 -0.019990 -5.371409 0.792475 0.663318 
-0.300610 54.050594 13.290550 19.204493 -2.031487 -4.378675 70.321045 -11.050605 -12.736963 -17.933048 1.256536 -1.123099 -33.655537 3.529716 0.761227 20.465261 1.377262 3.870676 -1.896031 -0.900906 0.061420 27.050228 -87.080551 -78.989799 -72.216118 9.915954 16.949141 6.992188 16.005859 37.883553 5.164488 -1.441709 -0.481386 59.500839 44.145908 51.339539 89.934067 -1.052625 29.521013 -7.001954 -15.996095 127.978508 -34.954235 11.999578 -0.184956 33.252037 -5.293446 -2.464974 -23.983986 3.097155 1.620829 -2.411818 -22.318930 -3.020798 3.583266 5.133825 -0.019990 -5.371137 0.793862 0.663972 
-0.299988 54.045616 13.281847 19.206701 -2.029876 -4.264404 70.277725 -10.881406 -12.807952 -17.923334 1.296752 -1.170924 -33.693020 3.451765 0.764580 20.133507 1.371201 3.835537 -1.896031 -0.900906 0.061420 27.308611 -87.088387 -79.028687 -72.290237 9.907388 16.987055 6.992188 16.005859 37.785892 5.164488 -1.441709 -0.481386 59.517277 44.157200 51.524193 89.927841 -1.062005 29.472057 -7.001954 -15.996095 127.949226 -34.968391 11.923020 -0.268788 33.249680 -5.309479 -2.459116 -23.982958 3.112282 1.607643 -2.411813 -22.318928 -3.020797 3.583263 5.133825 -0.019990 -5.380422 0.793149 0.674375 
-0.305272 54.042198 13.269410 19.207561 -2.003010 -4.193025 70.259666 -10.738521 -12.840773 -17.903854 1.329575 -1.206989 -33.712585 3.452058 0.763610 19.751049 1.284271 3.807051 -1.896031 -0.900906 0.061420 29.205107 -87.068306 -80.608482 -72.384987 9.895254 17.027157 6.992188 16.005859 37.649178 5.164488 -1.441709 -0.481386 59.640686 44.187794 51.677170 89.918953 -1.071158 29.423126 -7.001954 -15.996095 127.695305 -34.952320 11.871984 -0.233013 33.210827 -5.304041 -2.455898 -23.943216 3.110775 1.616478 -2.411818 -22.318930 -3.020798 3.583260 5.133828 -0.019990 -5.369921 0.796069 0.675654 
